<?xml version="1.0" encoding="UTF-8"?>
<svg xmlns="http://www.w3.org/2000/svg" viewBox="0 0 512 512" width="100" height="100">
  <g fill="#D4AF37">
    <!-- Left Laurel -->
    <path d="M224,120c0,0-32-8-48-8s-32-8-48,16c0,0,16-8,32,0s16,16,16,24s-16,32-24,48s-16,56-16,56s16-40,32-64s32-24,48-8
      c0,0-16-24-16-40S216,120,224,120z"/>
    <path d="M128,200c0,0,40,24,56,56s32,72,32,72s-8-48-24-80s-32-40-48-32C144,216,144,208,128,200z"/>
    <path d="M136,224c0,0,32,32,40,72s8,104,8,104s0-64-16-104s-32-48-48-40C120,256,128,240,136,224z"/>
    <path d="M128,272c0,0,24,32,24,80s-8,96-8,96s16-48,8-96s-24-56-40-56C112,296,120,280,128,272z"/>
    <path d="M96,328c0,0,16,32,8,72s-32,72-32,72s40-24,40-72s-16-64-24-64C88,336,96,328,96,328z"/>
    
    <!-- Right Laurel (mirrored) -->
    <path d="M288,120c0,0,32-8,48-8s32-8,48,16c0,0-16-8-32,0s-16,16-16,24s16,32,24,48s16,56,16,56s-16-40-32-64s-32-24-48-8
      c0,0,16-24,16-40S296,120,288,120z"/>
    <path d="M384,200c0,0-40,24-56,56s-32,72-32,72s8-48,24-80s32-40,48-32C368,216,368,208,384,200z"/>
    <path d="M376,224c0,0-32,32-40,72s-8,104-8,104s0-64,16-104s32-48,48-40C392,256,384,240,376,224z"/>
    <path d="M384,272c0,0-24,32-24,80s8,96,8,96s-16-48-8-96s24-56,40-56C400,296,392,280,384,272z"/>
    <path d="M416,328c0,0-16,32-8,72s32,72,32,72s-40-24-40-72s16-64,24-64C424,336,416,328,416,328z"/>
  </g>
</svg>
